<svg width="25" height="20" viewBox="0 0 25 20" fill="none" xmlns="http://www.w3.org/2000/svg">
<g id="navigation 1">
<g id="Navigation">
<path id="Vector" d="M22.2144 2.76033L13.9777 17.7603C13.9087 17.886 13.7919 17.989 13.6453 18.0533C13.4988 18.1177 13.3308 18.1396 13.1678 18.1158C13.0047 18.092 12.8556 18.0237 12.744 17.9217C12.6323 17.8197 12.5643 17.6896 12.5506 17.5519L11.8542 10.579L3.5001 9.99771C3.33511 9.98627 3.1793 9.92951 3.05707 9.8363C2.93483 9.7431 2.85304 9.61871 2.8245 9.48258C2.79596 9.34646 2.82228 9.20628 2.89934 9.08397C2.97639 8.96166 3.09984 8.86411 3.25038 8.80658L21.2215 1.93158C21.3605 1.87844 21.5155 1.86205 21.666 1.88461C21.8164 1.90718 21.9549 1.96762 22.063 2.05781C22.171 2.14801 22.2434 2.26365 22.2705 2.38919C22.2975 2.51474 22.2779 2.64418 22.2142 2.76014L22.2144 2.76033Z" fill="#080809"/>
</g>
</g>
</svg>
